<svg width="57" height="56" viewBox="0 0 57 56" fill="none" xmlns="http://www.w3.org/2000/svg">
<g clip-path="url(#clip0)">
<rect width="57" height="56" rx="20" transform="matrix(1 0 0 -1 0 56)" fill="#25396A"/>
<ellipse cx="33.5" cy="28.5" rx="38.5" ry="42.5" fill="#25396A"/>
<path d="M17.3906 41.4C15.4973 41.4 13.804 41.0133 12.3106 40.24C10.844 39.4667 9.68396 38.2667 8.83063 36.64C8.00396 35.0133 7.59063 32.9333 7.59063 30.4C7.59063 27.76 8.03063 25.6133 8.91063 23.96C9.79063 22.3067 10.9773 21.0933 12.4706 20.32C13.9906 19.5467 15.7106 19.16 17.6306 19.16C18.724 19.16 19.7773 19.28 20.7906 19.52C21.804 19.7333 22.6306 20 23.2706 20.32L22.1906 23.24C21.5506 23 20.804 22.7733 19.9506 22.56C19.0973 22.3467 18.2973 22.24 17.5506 22.24C13.3373 22.24 11.2306 24.9467 11.2306 30.36C11.2306 32.9467 11.7373 34.9333 12.7506 36.32C13.7906 37.68 15.324 38.36 17.3506 38.36C18.524 38.36 19.5506 38.24 20.4306 38C21.3373 37.76 22.164 37.4667 22.9106 37.12V40.24C22.1906 40.6133 21.3906 40.8933 20.5106 41.08C19.6573 41.2933 18.6173 41.4 17.3906 41.4Z" fill="white"/>
<path d="M12.3106 40.24L11.3778 42.0091L11.3843 42.0126L11.3909 42.016L12.3106 40.24ZM8.83063 36.64L7.04765 37.5461L7.05352 37.5576L7.05953 37.5691L8.83063 36.64ZM8.91063 23.96L10.6761 24.8997L10.6761 24.8997L8.91063 23.96ZM12.4706 20.32L11.5637 18.5374L11.5573 18.5407L11.5509 18.544L12.4706 20.32ZM20.7906 19.52L20.3297 21.4662L20.3541 21.4719L20.3786 21.4771L20.7906 19.52ZM23.2706 20.32L25.1464 21.0138L25.7682 19.3327L24.1651 18.5311L23.2706 20.32ZM22.1906 23.24L21.4884 25.1127L23.3695 25.8181L24.0664 23.9338L22.1906 23.24ZM19.9506 22.56L20.4357 20.6197L20.4357 20.6197L19.9506 22.56ZM12.7506 36.32L11.1358 37.5L11.1487 37.5176L11.1619 37.5349L12.7506 36.32ZM20.4306 38L19.9188 36.0666L19.9116 36.0685L19.9044 36.0705L20.4306 38ZM22.9106 37.12H24.9106V33.9864L22.0684 35.306L22.9106 37.12ZM22.9106 40.24L23.8313 42.0155L24.9106 41.4558V40.24H22.9106ZM20.5106 41.08L20.0956 39.1235L20.0604 39.131L20.0256 39.1397L20.5106 41.08ZM17.3906 39.4C15.7766 39.4 14.4053 39.0725 13.2303 38.464L11.3909 42.016C13.2026 42.9542 15.218 43.4 17.3906 43.4V39.4ZM13.2434 38.4709C12.173 37.9065 11.2882 37.0195 10.6017 35.7109L7.05953 37.5691C8.07972 39.5138 9.5149 41.0269 11.3778 42.0091L13.2434 38.4709ZM10.6136 35.7339C9.97402 34.4754 9.59063 32.7338 9.59063 30.4H5.59063C5.59063 33.1328 6.0339 35.5513 7.04765 37.5461L10.6136 35.7339ZM9.59063 30.4C9.59063 27.9613 10.0002 26.1697 10.6761 24.8997L7.14513 23.0203C6.06108 25.057 5.59063 27.5587 5.59063 30.4H9.59063ZM10.6761 24.8997C11.3881 23.562 12.2977 22.6618 13.3903 22.096L11.5509 18.544C9.65693 19.5248 8.19315 21.0513 7.14513 23.0203L10.6761 24.8997ZM13.3775 22.1026C14.5829 21.4893 15.9858 21.16 17.6306 21.16V17.16C15.4355 17.16 13.3983 17.6041 11.5637 18.5374L13.3775 22.1026ZM17.6306 21.16C18.5765 21.16 19.4747 21.2637 20.3297 21.4662L21.2516 17.5738C20.0799 17.2963 18.8714 17.16 17.6306 17.16V21.16ZM20.3786 21.4771C21.2922 21.6694 21.9406 21.891 22.3762 22.1089L24.1651 18.5311C23.3207 18.109 22.3158 17.7972 21.2026 17.5629L20.3786 21.4771ZM21.3948 19.6262L20.3148 22.5462L24.0664 23.9338L25.1464 21.0138L21.3948 19.6262ZM22.8929 21.3673C22.1651 21.0944 21.343 20.8465 20.4357 20.6197L19.4656 24.5003C20.2649 24.7001 20.9362 24.9056 21.4884 25.1127L22.8929 21.3673ZM20.4357 20.6197C19.451 20.3735 18.4867 20.24 17.5506 20.24V24.24C18.1078 24.24 18.7436 24.3198 19.4656 24.5003L20.4357 20.6197ZM17.5506 20.24C14.9832 20.24 12.7512 21.0902 11.2323 23.0416C9.78763 24.8978 9.23063 27.449 9.23063 30.36H13.2306C13.2306 27.8576 13.727 26.3489 14.3889 25.4984C14.9767 24.7432 15.9047 24.24 17.5506 24.24V20.24ZM9.23063 30.36C9.23063 33.1678 9.7743 35.6369 11.1358 37.5L14.3654 35.14C13.7003 34.2298 13.2306 32.7256 13.2306 30.36H9.23063ZM11.1619 37.5349C12.6522 39.4838 14.8298 40.36 17.3506 40.36V36.36C15.8181 36.36 14.929 35.8762 14.3393 35.1051L11.1619 37.5349ZM17.3506 40.36C18.6538 40.36 19.8646 40.2274 20.9569 39.9295L19.9044 36.0705C19.2367 36.2526 18.3941 36.36 17.3506 36.36V40.36ZM20.9424 39.9334C21.9472 39.6674 22.8863 39.3364 23.7528 38.934L22.0684 35.306C21.4417 35.597 20.7274 35.8526 19.9188 36.0666L20.9424 39.9334ZM20.9106 37.12V40.24H24.9106V37.12H20.9106ZM21.99 38.4645C21.446 38.7466 20.8186 38.9702 20.0956 39.1235L20.9256 43.0365C21.9626 42.8165 22.9353 42.4801 23.8313 42.0155L21.99 38.4645ZM20.0256 39.1397C19.3794 39.3013 18.5127 39.4 17.3906 39.4V43.4C18.7218 43.4 19.9352 43.2854 20.9957 43.0203L20.0256 39.1397Z" fill="white"/>
<path d="M40.405 25.28H35.005V44H31.485V25.28H27.725V23.64L31.485 22.44V21.2C31.485 18.4267 32.0983 16.44 33.325 15.24C34.5517 14.0133 36.2583 13.4 38.445 13.4C39.2983 13.4 40.0717 13.48 40.765 13.64C41.485 13.7733 42.0983 13.9333 42.605 14.12L41.685 16.88C41.2583 16.7467 40.765 16.6133 40.205 16.48C39.645 16.3467 39.0717 16.28 38.485 16.28C37.3117 16.28 36.4317 16.68 35.845 17.48C35.285 18.2533 35.005 19.48 35.005 21.16V22.56H40.405V25.28Z" fill="#35CB00"/>
<path d="M40.405 25.28V27.28H42.405V25.28H40.405ZM35.005 25.28V23.28H33.005V25.28H35.005ZM35.005 44V46H37.005V44H35.005ZM31.485 44H29.485V46H31.485V44ZM31.485 25.28H33.485V23.28H31.485V25.28ZM27.725 25.28H25.725V27.28H27.725V25.28ZM27.725 23.64L27.1169 21.7347L25.725 22.1789V23.64H27.725ZM31.485 22.44L32.0931 24.3453L33.485 23.9011V22.44H31.485ZM33.325 15.24L34.7236 16.6697L34.7314 16.662L34.7392 16.6542L33.325 15.24ZM40.765 13.64L40.3153 15.5888L40.3579 15.5986L40.4008 15.6066L40.765 13.64ZM42.605 14.12L44.5024 14.7525L45.1154 12.9135L43.2964 12.2433L42.605 14.12ZM41.685 16.88L41.0885 18.789L42.9617 19.3744L43.5824 17.5125L41.685 16.88ZM35.845 17.48L34.2322 16.2972L34.2251 16.307L35.845 17.48ZM35.005 22.56H33.005V24.56H35.005V22.56ZM40.405 22.56H42.405V20.56H40.405V22.56ZM40.405 23.28H35.005V27.28H40.405V23.28ZM33.005 25.28V44H37.005V25.28H33.005ZM35.005 42H31.485V46H35.005V42ZM33.485 44V25.28H29.485V44H33.485ZM31.485 23.28H27.725V27.28H31.485V23.28ZM29.725 25.28V23.64H25.725V25.28H29.725ZM28.3331 25.5453L32.0931 24.3453L30.8769 20.5347L27.1169 21.7347L28.3331 25.5453ZM33.485 22.44V21.2H29.485V22.44H33.485ZM33.485 21.2C33.485 18.646 34.0615 17.3174 34.7236 16.6697L31.9264 13.8103C30.1352 15.5626 29.485 18.2073 29.485 21.2H33.485ZM34.7392 16.6542C35.4991 15.8943 36.6432 15.4 38.445 15.4V11.4C35.8734 11.4 33.6042 12.1323 31.9108 13.8258L34.7392 16.6542ZM38.445 15.4C39.1759 15.4 39.7952 15.4688 40.3153 15.5888L41.2147 11.6912C40.3481 11.4912 39.4207 11.4 38.445 11.4V15.4ZM40.4008 15.6066C41.0458 15.726 41.5431 15.8602 41.9136 15.9967L43.2964 12.2433C42.6535 12.0065 41.9242 11.8207 41.1292 11.6734L40.4008 15.6066ZM40.7076 13.4875L39.7876 16.2475L43.5824 17.5125L44.5024 14.7525L40.7076 13.4875ZM42.2816 14.971C41.8005 14.8207 41.2611 14.6755 40.6682 14.5344L39.7418 18.4256C40.2689 18.5511 40.7162 18.6726 41.0885 18.789L42.2816 14.971ZM40.6682 14.5344C39.9536 14.3642 39.2247 14.28 38.485 14.28V18.28C38.9187 18.28 39.3364 18.3291 39.7418 18.4256L40.6682 14.5344ZM38.485 14.28C36.8066 14.28 35.2674 14.8856 34.2322 16.2973L37.4578 18.6627C37.5959 18.4744 37.8167 18.28 38.485 18.28V14.28ZM34.2251 16.307C33.292 17.5955 33.005 19.3419 33.005 21.16H37.005C37.005 19.618 37.278 18.9111 37.4649 18.653L34.2251 16.307ZM33.005 21.16V22.56H37.005V21.16H33.005ZM35.005 24.56H40.405V20.56H35.005V24.56ZM38.405 22.56V25.28H42.405V22.56H38.405Z" fill="#35CB00"/>
</g>
<defs>
<clipPath id="clip0">
<rect width="57" height="56" rx="20" transform="matrix(1 0 0 -1 0 56)" fill="white"/>
</clipPath>
</defs>
</svg>
