<svg width="79" height="30" viewBox="0 0 79 30" fill="none" xmlns="http://www.w3.org/2000/svg">
<path d="M12.57 26.48C10.35 26.48 8.35 26.02 6.57 25.1C4.79 24.16 3.39 22.86 2.37 21.2C1.37 19.52 0.87 17.62 0.87 15.5C0.87 13.38 1.37 11.49 2.37 9.83C3.39 8.15 4.79 6.85 6.57 5.93C8.35 4.99 10.35 4.52 12.57 4.52C14.61 4.52 16.43 4.88 18.03 5.6C19.63 6.32 20.95 7.36 21.99 8.72L17.52 12.71C16.22 11.07 14.69 10.25 12.93 10.25C11.45 10.25 10.26 10.73 9.36 11.69C8.46 12.63 8.01 13.9 8.01 15.5C8.01 17.1 8.46 18.38 9.36 19.34C10.26 20.28 11.45 20.75 12.93 20.75C14.69 20.75 16.22 19.93 17.52 18.29L21.99 22.28C20.95 23.64 19.63 24.68 18.03 25.4C16.43 26.12 14.61 26.48 12.57 26.48ZM24.0342 5H31.1142V26H24.0342V5Z" fill="#838383"/>
<path d="M50.6 14.93H56.75V23.81C55.51 24.67 54.07 25.33 52.43 25.79C50.79 26.25 49.18 26.48 47.6 26.48C45.36 26.48 43.35 26.02 41.57 25.1C39.79 24.16 38.39 22.86 37.37 21.2C36.37 19.52 35.87 17.62 35.87 15.5C35.87 13.38 36.37 11.49 37.37 9.83C38.39 8.15 39.8 6.85 41.6 5.93C43.42 4.99 45.47 4.52 47.75 4.52C49.81 4.52 51.65 4.87 53.27 5.57C54.91 6.25 56.27 7.25 57.35 8.57L52.82 12.56C51.5 11.02 49.93 10.25 48.11 10.25C46.55 10.25 45.31 10.72 44.39 11.66C43.47 12.6 43.01 13.88 43.01 15.5C43.01 17.08 43.46 18.35 44.36 19.31C45.28 20.27 46.5 20.75 48.02 20.75C48.92 20.75 49.78 20.58 50.6 20.24V14.93ZM77.2266 20.66V26H59.7666V5H76.8366V10.34H66.7266V12.8H75.6066V17.9H66.7266V20.66H77.2266Z" fill="#4169E1"/>
</svg>
