<svg width="241" height="52" viewBox="0 0 241 52" fill="none" xmlns="http://www.w3.org/2000/svg">
<rect width="241" height="52" fill="#E5E5E5"/>
<g clip-path="url(#clip0)">
<rect width="241" height="52" transform="matrix(1 0 0 -1 0 52)" fill="white"/>
<rect x="-1" y="-3" width="242" height="55" fill="#25396A"/>
<rect x="139" y="-9" width="102" height="61" fill="white"/>
<path d="M176.25 40H172.65V11.44H188.61V14.6H176.25V24.72H187.85V27.88H176.25V40ZM210.53 40L207.09 31.16H195.77L192.37 40H188.73L199.89 11.32H203.13L214.25 40H210.53ZM202.81 19.32C202.73 19.1067 202.597 18.72 202.41 18.16C202.224 17.6 202.037 17.0267 201.85 16.44C201.69 15.8267 201.557 15.36 201.45 15.04C201.264 15.8667 201.05 16.68 200.81 17.48C200.57 18.2533 200.37 18.8667 200.21 19.32L196.97 27.96H206.01L202.81 19.32ZM234.357 32.36C234.357 34.8933 233.437 36.8667 231.597 38.28C229.757 39.6933 227.277 40.4 224.157 40.4C222.557 40.4 221.077 40.28 219.717 40.04C218.357 39.8 217.224 39.4667 216.317 39.04V35.6C217.277 36.0267 218.464 36.4133 219.877 36.76C221.317 37.1067 222.797 37.28 224.317 37.28C226.451 37.28 228.051 36.8667 229.117 36.04C230.211 35.2133 230.757 34.0933 230.757 32.68C230.757 31.7467 230.557 30.96 230.157 30.32C229.757 29.68 229.064 29.0933 228.077 28.56C227.117 28 225.771 27.4133 224.037 26.8C221.611 25.92 219.771 24.84 218.517 23.56C217.291 22.28 216.677 20.5333 216.677 18.32C216.677 16.8 217.064 15.5067 217.837 14.44C218.611 13.3467 219.677 12.5067 221.037 11.92C222.424 11.3333 224.011 11.04 225.797 11.04C227.371 11.04 228.811 11.1867 230.117 11.48C231.424 11.7733 232.611 12.16 233.677 12.64L232.557 15.72C231.571 15.2933 230.491 14.9333 229.317 14.64C228.171 14.3467 226.971 14.2 225.717 14.2C223.931 14.2 222.584 14.5867 221.677 15.36C220.771 16.1067 220.317 17.1067 220.317 18.36C220.317 19.32 220.517 20.12 220.917 20.76C221.317 21.4 221.971 21.9733 222.877 22.48C223.784 22.9867 225.011 23.5333 226.557 24.12C228.237 24.7333 229.651 25.4 230.797 26.12C231.971 26.8133 232.851 27.6533 233.437 28.64C234.051 29.6267 234.357 30.8667 234.357 32.36Z" fill="#35CB00"/>
<path d="M176.25 40V42H178.25V40H176.25ZM172.65 40H170.65V42H172.65V40ZM172.65 11.44V9.44H170.65V11.44H172.65ZM188.61 11.44H190.61V9.44H188.61V11.44ZM188.61 14.6V16.6H190.61V14.6H188.61ZM176.25 14.6V12.6H174.25V14.6H176.25ZM176.25 24.72H174.25V26.72H176.25V24.72ZM187.85 24.72H189.85V22.72H187.85V24.72ZM187.85 27.88V29.88H189.85V27.88H187.85ZM176.25 27.88V25.88H174.25V27.88H176.25ZM176.25 38H172.65V42H176.25V38ZM174.65 40V11.44H170.65V40H174.65ZM172.65 13.44H188.61V9.44H172.65V13.44ZM186.61 11.44V14.6H190.61V11.44H186.61ZM188.61 12.6H176.25V16.6H188.61V12.6ZM174.25 14.6V24.72H178.25V14.6H174.25ZM176.25 26.72H187.85V22.72H176.25V26.72ZM185.85 24.72V27.88H189.85V24.72H185.85ZM187.85 25.88H176.25V29.88H187.85V25.88ZM174.25 27.88V40H178.25V27.88H174.25ZM210.53 40L208.667 40.7253L209.163 42H210.53V40ZM207.09 31.16L208.954 30.4347L208.458 29.16H207.09V31.16ZM195.77 31.16V29.16H194.397L193.904 30.442L195.77 31.16ZM192.37 40V42H193.744L194.237 40.718L192.37 40ZM188.73 40L186.867 39.2747L185.806 42H188.73V40ZM199.89 11.32V9.32H198.523L198.027 10.5947L199.89 11.32ZM203.13 11.32L204.995 10.597L204.5 9.32H203.13V11.32ZM214.25 40V42H217.171L216.115 39.277L214.25 40ZM202.81 19.32L204.686 18.6254L204.683 18.6177L202.81 19.32ZM202.41 18.16L200.513 18.7925L200.513 18.7925L202.41 18.16ZM201.85 16.44L199.915 16.9448L199.929 16.996L199.945 17.0464L201.85 16.44ZM201.45 15.04L203.348 14.4075L201.08 7.60263L199.5 14.5995L201.45 15.04ZM200.81 17.48L202.721 18.0728L202.723 18.0638L202.726 18.0547L200.81 17.48ZM200.21 19.32L202.083 20.0222L202.09 20.004L202.096 19.9856L200.21 19.32ZM196.97 27.96L195.098 27.2578L194.084 29.96H196.97V27.96ZM206.01 27.96V29.96H208.884L207.886 27.2654L206.01 27.96ZM212.394 39.2747L208.954 30.4347L205.227 31.8853L208.667 40.7253L212.394 39.2747ZM207.09 29.16H195.77V33.16H207.09V29.16ZM193.904 30.442L190.504 39.282L194.237 40.718L197.637 31.878L193.904 30.442ZM192.37 38H188.73V42H192.37V38ZM190.594 40.7253L201.754 12.0453L198.027 10.5947L186.867 39.2747L190.594 40.7253ZM199.89 13.32H203.13V9.32H199.89V13.32ZM201.266 12.043L212.386 40.723L216.115 39.277L204.995 10.597L201.266 12.043ZM214.25 38H210.53V42H214.25V38ZM204.683 18.6177C204.618 18.4435 204.495 18.0895 204.308 17.5275L200.513 18.7925C200.699 19.3505 200.843 19.7699 200.938 20.0222L204.683 18.6177ZM204.308 17.5275C204.124 16.9766 203.94 16.4119 203.756 15.8336L199.945 17.0464C200.134 17.6414 200.323 18.2234 200.513 18.7925L204.308 17.5275ZM203.786 15.9352C203.622 15.3091 203.476 14.7915 203.348 14.4075L199.553 15.6725C199.638 15.9285 199.759 16.3442 199.915 16.9448L203.786 15.9352ZM199.5 14.5995C199.323 15.3817 199.121 16.1502 198.895 16.9053L202.726 18.0547C202.98 17.2097 203.205 16.3516 203.401 15.4805L199.5 14.5995ZM198.9 16.8872C198.664 17.6501 198.472 18.2359 198.324 18.6544L202.096 19.9856C202.269 19.4974 202.477 18.8565 202.721 18.0728L198.9 16.8872ZM198.338 18.6178L195.098 27.2578L198.843 28.6622L202.083 20.0222L198.338 18.6178ZM196.97 29.96H206.01V25.96H196.97V29.96ZM207.886 27.2654L204.686 18.6254L200.935 20.0146L204.135 28.6546L207.886 27.2654ZM231.597 38.28L230.379 36.6939L230.379 36.6939L231.597 38.28ZM219.717 40.04L220.065 38.0704L220.065 38.0704L219.717 40.04ZM216.317 39.04H214.317V40.3092L215.466 40.8496L216.317 39.04ZM216.317 35.6L217.13 33.7724L214.317 32.5225V35.6H216.317ZM219.877 36.76L219.401 38.7024L219.409 38.7044L219.877 36.76ZM229.117 36.04L227.911 34.4447L227.902 34.4519L227.892 34.4592L229.117 36.04ZM230.157 30.32L228.461 31.38L228.461 31.38L230.157 30.32ZM228.077 28.56L227.07 30.2876L227.098 30.3039L227.126 30.3194L228.077 28.56ZM224.037 26.8L223.356 28.6802L223.363 28.6828L223.37 28.6854L224.037 26.8ZM218.517 23.56L217.073 24.9438L217.081 24.9516L217.088 24.9592L218.517 23.56ZM217.837 14.44L219.457 15.6139L219.463 15.6045L219.47 15.5949L217.837 14.44ZM221.037 11.92L220.258 10.078L220.245 10.0836L221.037 11.92ZM230.117 11.48L230.555 9.52857L230.555 9.52856L230.117 11.48ZM233.677 12.64L235.557 13.3235L236.192 11.5782L234.498 10.8162L233.677 12.64ZM232.557 15.72L231.764 17.5557L233.712 18.3981L234.437 16.4035L232.557 15.72ZM229.317 14.64L228.822 16.5776L228.832 16.5803L229.317 14.64ZM221.677 15.36L222.949 16.9039L222.962 16.8929L222.975 16.8817L221.677 15.36ZM220.917 20.76L222.613 19.7L222.613 19.7L220.917 20.76ZM222.877 22.48L221.902 24.2259L221.902 24.2259L222.877 22.48ZM226.557 24.12L225.848 25.99L225.86 25.9944L225.871 25.9987L226.557 24.12ZM230.797 26.12L229.734 27.8138L229.757 27.8281L229.78 27.8419L230.797 26.12ZM233.437 28.64L231.718 29.6622L231.728 29.6791L231.739 29.6959L233.437 28.64ZM232.357 32.36C232.357 34.3377 231.676 35.6974 230.379 36.6939L232.816 39.8661C235.198 38.0359 236.357 35.449 236.357 32.36H232.357ZM230.379 36.6939C228.992 37.7595 226.988 38.4 224.157 38.4V42.4C227.567 42.4 230.523 41.6271 232.816 39.8661L230.379 36.6939ZM224.157 38.4C222.656 38.4 221.294 38.2873 220.065 38.0704L219.37 42.0096C220.861 42.2727 222.459 42.4 224.157 42.4V38.4ZM220.065 38.0704C218.819 37.8505 217.868 37.5593 217.169 37.2304L215.466 40.8496C216.58 41.374 217.896 41.7495 219.37 42.0096L220.065 38.0704ZM218.317 39.04V35.6H214.317V39.04H218.317ZM215.505 37.4276C216.606 37.9168 217.913 38.3374 219.401 38.7024L220.354 34.8176C219.015 34.4892 217.949 34.1365 217.13 33.7724L215.505 37.4276ZM219.409 38.7044C221.007 39.089 222.644 39.28 224.317 39.28V35.28C222.951 35.28 221.628 35.1244 220.345 34.8156L219.409 38.7044ZM224.317 39.28C226.654 39.28 228.773 38.8369 230.342 37.6208L227.892 34.4592C227.328 34.8965 226.248 35.28 224.317 35.28V39.28ZM230.324 37.6353C231.935 36.417 232.757 34.6972 232.757 32.68H228.757C228.757 33.4894 228.487 34.0096 227.911 34.4447L230.324 37.6353ZM232.757 32.68C232.757 31.4604 232.494 30.2854 231.853 29.26L228.461 31.38C228.62 31.6346 228.757 32.0329 228.757 32.68H232.757ZM231.853 29.26C231.202 28.2174 230.182 27.4243 229.028 26.8006L227.126 30.3194C227.946 30.7623 228.313 31.1426 228.461 31.38L231.853 29.26ZM229.085 26.8324C227.97 26.1818 226.49 25.5464 224.705 24.9146L223.37 28.6854C225.051 29.2803 226.265 29.8182 227.07 30.2876L229.085 26.8324ZM224.719 24.9198C222.459 24.1003 220.918 23.1533 219.946 22.1607L217.088 24.9592C218.623 26.5267 220.762 27.7397 223.356 28.6802L224.719 24.9198ZM219.961 22.1762C219.175 21.3555 218.677 20.1521 218.677 18.32H214.677C214.677 20.9145 215.407 23.2045 217.073 24.9438L219.961 22.1762ZM218.677 18.32C218.677 17.1545 218.967 16.2886 219.457 15.6139L216.218 13.2661C215.161 14.7248 214.677 16.4455 214.677 18.32H218.677ZM219.47 15.5949C220.009 14.8329 220.77 14.2134 221.83 13.7564L220.245 10.0836C218.585 10.7999 217.212 11.8605 216.205 13.2851L219.47 15.5949ZM221.817 13.7619C222.915 13.2971 224.229 13.04 225.797 13.04V9.04C223.792 9.04 221.933 9.36951 220.258 10.0781L221.817 13.7619ZM225.797 13.04C227.248 13.04 228.539 13.1754 229.679 13.4314L230.555 9.52856C229.083 9.19793 227.493 9.04 225.797 9.04V13.04ZM229.679 13.4314C230.873 13.6994 231.929 14.0464 232.857 14.4638L234.498 10.8162C233.292 10.2736 231.975 9.84727 230.555 9.52857L229.679 13.4314ZM231.798 11.9565L230.678 15.0365L234.437 16.4035L235.557 13.3235L231.798 11.9565ZM233.351 13.8843C232.253 13.4095 231.068 13.0162 229.802 12.6997L228.832 16.5803C229.913 16.8504 230.888 17.1772 231.764 17.5557L233.351 13.8843ZM229.813 12.7024C228.495 12.3653 227.128 12.2 225.717 12.2V16.2C226.813 16.2 227.846 16.3281 228.822 16.5776L229.813 12.7024ZM225.717 12.2C223.684 12.2 221.791 12.6343 220.379 13.8383L222.975 16.8817C223.377 16.539 224.177 16.2 225.717 16.2V12.2ZM220.406 13.8161C219.004 14.971 218.317 16.5549 218.317 18.36H222.317C222.317 17.6584 222.538 17.2424 222.949 16.9039L220.406 13.8161ZM218.317 18.36C218.317 19.5939 218.575 20.7862 219.221 21.82L222.613 19.7C222.459 19.4538 222.317 19.0461 222.317 18.36H218.317ZM219.221 21.82C219.854 22.8329 220.806 23.6138 221.902 24.2259L223.853 20.7341C223.135 20.3329 222.78 19.967 222.613 19.7L219.221 21.82ZM221.902 24.2259C222.929 24.7998 224.257 25.3863 225.848 25.99L227.267 22.25C225.765 21.6803 224.639 21.1735 223.853 20.7341L221.902 24.2259ZM225.871 25.9987C227.459 26.5782 228.737 27.1879 229.734 27.8138L231.861 24.4262C230.564 23.6121 229.016 22.8885 227.243 22.2413L225.871 25.9987ZM229.78 27.8419C230.718 28.3965 231.333 29.0134 231.718 29.6622L235.156 27.6178C234.369 26.2932 233.223 25.2302 231.815 24.3981L229.78 27.8419ZM231.739 29.6959C232.106 30.2869 232.357 31.1349 232.357 32.36H236.357C236.357 30.5985 235.995 28.9664 235.136 27.5841L231.739 29.6959Z" fill="#35CB00"/>
<path d="M18.9221 12.975C15.4721 12.975 12.7571 14.13 10.7771 16.44C8.79711 18.75 7.80711 21.915 7.80711 25.935C7.80711 29.925 8.72211 33.09 10.5521 35.43C12.4121 37.74 15.1871 38.895 18.8771 38.895C20.2871 38.895 21.6221 38.775 22.8821 38.535C24.1421 38.295 25.3721 37.995 26.5721 37.635V41.145C25.3721 41.595 24.1271 41.925 22.8371 42.135C21.5771 42.345 20.0621 42.45 18.2921 42.45C15.0221 42.45 12.2921 41.775 10.1021 40.425C7.91211 39.075 6.26211 37.155 5.15211 34.665C4.07211 32.175 3.53211 29.25 3.53211 25.89C3.53211 22.65 4.11711 19.8 5.28711 17.34C6.48711 14.85 8.24211 12.915 10.5521 11.535C12.8621 10.125 15.6671 9.42 18.9671 9.42C22.3571 9.42 25.3121 10.05 27.8321 11.31L26.2121 14.73C25.2221 14.28 24.1121 13.875 22.8821 13.515C21.6821 13.155 20.3621 12.975 18.9221 12.975ZM42.6297 42H31.0197V39.66L34.7997 38.805V13.11L31.0197 12.21V9.87H42.6297V12.21L38.8497 13.11V38.805L42.6297 39.66V42ZM62.7838 25.035H73.8988V40.785C72.1588 41.355 70.4038 41.775 68.6338 42.045C66.8638 42.315 64.8538 42.45 62.6038 42.45C59.2738 42.45 56.4688 41.79 54.1888 40.47C51.9088 39.12 50.1688 37.215 48.9688 34.755C47.7988 32.265 47.2138 29.325 47.2138 25.935C47.2138 22.575 47.8738 19.665 49.1938 17.205C50.5138 14.745 52.4038 12.84 54.8638 11.49C57.3538 10.11 60.3538 9.42 63.8638 9.42C65.6638 9.42 67.3588 9.585 68.9488 9.915C70.5688 10.245 72.0688 10.71 73.4488 11.31L71.9188 14.82C70.7788 14.31 69.4888 13.875 68.0488 13.515C66.6388 13.155 65.1688 12.975 63.6388 12.975C59.7988 12.975 56.7988 14.13 54.6388 16.44C52.5088 18.75 51.4438 21.915 51.4438 25.935C51.4438 28.485 51.8488 30.75 52.6588 32.73C53.4988 34.68 54.8038 36.21 56.5738 37.32C58.3438 38.4 60.6688 38.94 63.5488 38.94C64.9588 38.94 66.1588 38.865 67.1488 38.715C68.1388 38.565 69.0388 38.385 69.8488 38.175V28.635H62.7838V25.035ZM99.528 42H81.573V9.87H99.528V13.425H85.623V23.46H98.718V26.97H85.623V38.445H99.528V42Z" fill="white"/>
<path d="M10.7771 16.44L12.2956 17.7416L12.2956 17.7416L10.7771 16.44ZM10.5521 35.43L8.97667 36.6621L8.98542 36.6733L8.99433 36.6843L10.5521 35.43ZM22.8821 38.535L22.5079 36.5703L22.5079 36.5703L22.8821 38.535ZM26.5721 37.635H28.5721V34.9469L25.9974 35.7193L26.5721 37.635ZM26.5721 41.145L27.2744 43.0177L28.5721 42.531V41.145H26.5721ZM22.8371 42.135L22.5158 40.161L22.5083 40.1622L22.8371 42.135ZM10.1021 40.425L11.1516 38.7225L11.1516 38.7225L10.1021 40.425ZM5.15211 34.665L3.31727 35.4608L3.32128 35.4701L3.3254 35.4793L5.15211 34.665ZM5.28711 17.34L3.4854 16.4717L3.48098 16.481L5.28711 17.34ZM10.5521 11.535L11.5778 13.2519L11.586 13.2471L11.5941 13.2421L10.5521 11.535ZM27.8321 11.31L29.6396 12.1662L30.4777 10.3967L28.7265 9.52114L27.8321 11.31ZM26.2121 14.73L25.3845 16.5507L27.1768 17.3654L28.0196 15.5862L26.2121 14.73ZM22.8821 13.515L22.3074 15.4307L22.3203 15.4345L22.8821 13.515ZM18.9221 10.975C14.9756 10.975 11.672 12.3228 9.2586 15.1384L12.2956 17.7416C13.8423 15.9372 15.9686 14.975 18.9221 14.975V10.975ZM9.2586 15.1384C6.87982 17.9137 5.80711 21.593 5.80711 25.935H9.80711C9.80711 22.237 10.7144 19.5863 12.2956 17.7416L9.2586 15.1384ZM5.80711 25.935C5.80711 30.219 6.7904 33.8665 8.97667 36.6621L12.1275 34.1979C10.6538 32.3135 9.80711 29.631 9.80711 25.935H5.80711ZM8.99433 36.6843C11.3252 39.5791 14.7439 40.895 18.8771 40.895V36.895C15.6303 36.895 13.499 35.9009 12.1099 34.1757L8.99433 36.6843ZM18.8771 40.895C20.4004 40.895 21.8615 40.7654 23.2563 40.4997L22.5079 36.5703C21.3827 36.7846 20.1738 36.895 18.8771 36.895V40.895ZM23.2563 40.4997C24.5824 40.2471 25.8793 39.9309 27.1468 39.5507L25.9974 35.7193C24.8649 36.0591 23.7019 36.3429 22.5079 36.5703L23.2563 40.4997ZM24.5721 37.635V41.145H28.5721V37.635H24.5721ZM25.8699 39.2723C24.7956 39.6752 23.6783 39.9717 22.5158 40.161L23.1585 44.109C24.5759 43.8783 25.9486 43.5148 27.2744 43.0177L25.8699 39.2723ZM22.5083 40.1622C21.3894 40.3487 19.9906 40.45 18.2921 40.45V44.45C20.1336 44.45 21.7648 44.3413 23.1659 44.1078L22.5083 40.1622ZM18.2921 40.45C15.2934 40.45 12.9511 39.8317 11.1516 38.7225L9.05261 42.1275C11.6331 43.7183 14.7508 44.45 18.2921 44.45V40.45ZM11.1516 38.7225C9.32508 37.5965 7.93531 35.9963 6.97882 33.8507L3.3254 35.4793C4.58891 38.3137 6.49914 40.5535 9.05261 42.1275L11.1516 38.7225ZM6.98695 33.8692C6.03853 31.6825 5.53211 29.0395 5.53211 25.89H1.53211C1.53211 29.4605 2.10569 32.6675 3.31727 35.4608L6.98695 33.8692ZM5.53211 25.89C5.53211 22.8915 6.07281 20.3445 7.09324 18.199L3.48098 16.481C2.16141 19.2555 1.53211 22.4085 1.53211 25.89H5.53211ZM7.0888 18.2083C8.1237 16.0609 9.61355 14.4254 11.5778 13.2519L9.5264 9.81805C6.87067 11.4046 4.85052 13.6391 3.48542 16.4717L7.0888 18.2083ZM11.5941 13.2421C13.5279 12.0618 15.954 11.42 18.9671 11.42V7.42C15.3802 7.42 12.1963 8.18824 9.51011 9.82789L11.5941 13.2421ZM18.9671 11.42C22.109 11.42 24.7463 12.0032 26.9377 13.0989L28.7265 9.52114C25.8779 8.09684 22.6052 7.42 18.9671 7.42V11.42ZM26.0246 10.4538L24.4046 13.8738L28.0196 15.5862L29.6396 12.1662L26.0246 10.4538ZM27.0397 12.9093C25.95 12.4139 24.7492 11.9776 23.4439 11.5955L22.3203 15.4345C23.475 15.7724 24.4942 16.1461 25.3845 16.5507L27.0397 12.9093ZM23.4568 11.5993C22.0449 11.1758 20.5283 10.975 18.9221 10.975V14.975C20.1959 14.975 21.3193 15.1342 22.3074 15.4307L23.4568 11.5993ZM42.6297 42V44H44.6297V42H42.6297ZM31.0197 42H29.0197V44H31.0197V42ZM31.0197 39.66L30.5785 37.7093L29.0197 38.0619V39.66H31.0197ZM34.7997 38.805L35.241 40.7557L36.7997 40.4031V38.805H34.7997ZM34.7997 13.11H36.7997V11.5303L35.263 11.1644L34.7997 13.11ZM31.0197 12.21H29.0197V13.7897L30.5565 14.1556L31.0197 12.21ZM31.0197 9.87V7.87H29.0197V9.87H31.0197ZM42.6297 9.87H44.6297V7.87H42.6297V9.87ZM42.6297 12.21L43.093 14.1556L44.6297 13.7897V12.21H42.6297ZM38.8497 13.11L38.3865 11.1644L36.8497 11.5303V13.11H38.8497ZM38.8497 38.805H36.8497V40.4031L38.4085 40.7557L38.8497 38.805ZM42.6297 39.66H44.6297V38.0619L43.071 37.7093L42.6297 39.66ZM42.6297 40H31.0197V44H42.6297V40ZM33.0197 42V39.66H29.0197V42H33.0197ZM31.461 41.6107L35.241 40.7557L34.3585 36.8543L30.5785 37.7093L31.461 41.6107ZM36.7997 38.805V13.11H32.7997V38.805H36.7997ZM35.263 11.1644L31.483 10.2644L30.5565 14.1556L34.3365 15.0556L35.263 11.1644ZM33.0197 12.21V9.87H29.0197V12.21H33.0197ZM31.0197 11.87H42.6297V7.87H31.0197V11.87ZM40.6297 9.87V12.21H44.6297V9.87H40.6297ZM42.1665 10.2644L38.3865 11.1644L39.313 15.0556L43.093 14.1556L42.1665 10.2644ZM36.8497 13.11V38.805H40.8497V13.11H36.8497ZM38.4085 40.7557L42.1885 41.6107L43.071 37.7093L39.291 36.8543L38.4085 40.7557ZM40.6297 39.66V42H44.6297V39.66H40.6297ZM62.7838 25.035V23.035H60.7838V25.035H62.7838ZM73.8988 25.035H75.8988V23.035H73.8988V25.035ZM73.8988 40.785L74.5214 42.6856L75.8988 42.2344V40.785H73.8988ZM68.6338 42.045L68.3322 40.0679L68.3322 40.0679L68.6338 42.045ZM54.1888 40.47L53.1698 42.191L53.1782 42.1959L53.1867 42.2009L54.1888 40.47ZM48.9688 34.755L47.1586 35.6055L47.1648 35.6187L47.1712 35.6318L48.9688 34.755ZM49.1938 17.205L50.9561 18.1506L50.9561 18.1506L49.1938 17.205ZM54.8638 11.49L55.826 13.2433L55.8332 13.2393L54.8638 11.49ZM68.9488 9.915L68.5423 11.8733L68.5495 11.8748L68.9488 9.915ZM73.4488 11.31L75.2821 12.1092L76.0821 10.2741L74.2462 9.47586L73.4488 11.31ZM71.9188 14.82L71.102 16.6456L72.9453 17.4702L73.7521 15.6192L71.9188 14.82ZM68.0488 13.515L67.554 15.4529L67.5637 15.4553L68.0488 13.515ZM54.6388 16.44L53.1779 15.074L53.1684 15.0842L54.6388 16.44ZM52.6588 32.73L50.8077 33.4873L50.8146 33.5043L50.8219 33.5212L52.6588 32.73ZM56.5738 37.32L55.5112 39.0144L55.5216 39.0209L55.532 39.0273L56.5738 37.32ZM67.1488 38.715L66.8491 36.7376L66.8491 36.7376L67.1488 38.715ZM69.8488 38.175L70.3507 40.111L71.8488 39.7226V38.175H69.8488ZM69.8488 28.635H71.8488V26.635H69.8488V28.635ZM62.7838 28.635H60.7838V30.635H62.7838V28.635ZM62.7838 27.035H73.8988V23.035H62.7838V27.035ZM71.8988 25.035V40.785H75.8988V25.035H71.8988ZM73.2761 38.8844C71.6385 39.4209 69.9908 39.8149 68.3322 40.0679L68.9353 44.0221C70.8167 43.7351 72.679 43.2891 74.5214 42.6856L73.2761 38.8844ZM68.3322 40.0679C66.6835 40.3194 64.7772 40.45 62.6038 40.45V44.45C64.9303 44.45 67.044 44.3106 68.9353 44.0221L68.3322 40.0679ZM62.6038 40.45C59.5342 40.45 57.0959 39.8421 55.1908 38.7391L53.1867 42.2009C55.8416 43.7379 59.0133 44.45 62.6038 44.45V40.45ZM55.2077 38.749C53.2757 37.6051 51.8008 35.999 50.7663 33.8782L47.1712 35.6318C48.5367 38.431 50.5418 40.6349 53.1698 42.191L55.2077 38.749ZM50.7789 33.9045C49.7595 31.735 49.2138 29.0977 49.2138 25.935H45.2138C45.2138 29.5523 45.838 32.795 47.1586 35.6055L50.7789 33.9045ZM49.2138 25.935C49.2138 22.8382 49.8209 20.2662 50.9561 18.1506L47.4314 16.2594C45.9266 19.0638 45.2138 22.3118 45.2138 25.935H49.2138ZM50.9561 18.1506C52.0921 16.0335 53.7033 14.4082 55.8259 13.2433L53.9016 9.73666C51.1042 11.2718 48.9354 13.4565 47.4314 16.2594L50.9561 18.1506ZM55.8332 13.2393C57.965 12.0579 60.6148 11.42 63.8638 11.42V7.42C60.0927 7.42 56.7425 8.16214 53.8943 9.74069L55.8332 13.2393ZM63.8638 11.42C65.5417 11.42 67.0995 11.5738 68.5423 11.8733L69.3552 7.95673C67.618 7.59618 65.7858 7.42 63.8638 7.42V11.42ZM68.5495 11.8748C70.046 12.1796 71.4112 12.6049 72.6513 13.1441L74.2462 9.47586C72.7264 8.81505 71.0915 8.3104 69.348 7.95524L68.5495 11.8748ZM71.6154 10.5108L70.0854 14.0208L73.7521 15.6192L75.2821 12.1092L71.6154 10.5108ZM72.7355 12.9944C71.4708 12.4286 70.067 11.958 68.5338 11.5747L67.5637 15.4553C68.9105 15.792 70.0867 16.1914 71.102 16.6456L72.7355 12.9944ZM68.5435 11.5772C66.9637 11.1738 65.3271 10.975 63.6388 10.975V14.975C65.0104 14.975 66.3138 15.1362 67.554 15.4528L68.5435 11.5772ZM63.6388 10.975C59.3729 10.975 55.7954 12.2748 53.1779 15.074L56.0996 17.806C57.8021 15.9852 60.2246 14.975 63.6388 14.975V10.975ZM53.1684 15.0842C50.6107 17.8581 49.4438 21.5579 49.4438 25.935H53.4438C53.4438 22.2721 54.4068 19.6419 56.1091 17.7958L53.1684 15.0842ZM49.4438 25.935C49.4438 28.6958 49.8824 31.2255 50.8077 33.4873L54.5098 31.9727C53.8151 30.2745 53.4438 28.2742 53.4438 25.935H49.4438ZM50.8219 33.5212C51.8196 35.8374 53.3915 37.6851 55.5112 39.0144L57.6363 35.6256C56.216 34.7349 55.1779 33.5226 54.4956 31.9388L50.8219 33.5212ZM55.532 39.0273C57.715 40.3593 60.4381 40.94 63.5488 40.94V36.94C60.8994 36.94 58.9725 36.4407 57.6155 35.6127L55.532 39.0273ZM63.5488 40.94C65.022 40.94 66.3283 40.8621 67.4484 40.6924L66.8491 36.7376C65.9892 36.8679 64.8955 36.94 63.5488 36.94V40.94ZM67.4484 40.6924C68.4937 40.534 69.4626 40.3412 70.3507 40.111L69.3468 36.239C68.6149 36.4288 67.7838 36.596 66.8491 36.7376L67.4484 40.6924ZM71.8488 38.175V28.635H67.8488V38.175H71.8488ZM69.8488 26.635H62.7838V30.635H69.8488V26.635ZM64.7838 28.635V25.035H60.7838V28.635H64.7838ZM99.528 42V44H101.528V42H99.528ZM81.573 42H79.573V44H81.573V42ZM81.573 9.87V7.87H79.573V9.87H81.573ZM99.528 9.87H101.528V7.87H99.528V9.87ZM99.528 13.425V15.425H101.528V13.425H99.528ZM85.623 13.425V11.425H83.623V13.425H85.623ZM85.623 23.46H83.623V25.46H85.623V23.46ZM98.718 23.46H100.718V21.46H98.718V23.46ZM98.718 26.97V28.97H100.718V26.97H98.718ZM85.623 26.97V24.97H83.623V26.97H85.623ZM85.623 38.445H83.623V40.445H85.623V38.445ZM99.528 38.445H101.528V36.445H99.528V38.445ZM99.528 40H81.573V44H99.528V40ZM83.573 42V9.87H79.573V42H83.573ZM81.573 11.87H99.528V7.87H81.573V11.87ZM97.528 9.87V13.425H101.528V9.87H97.528ZM99.528 11.425H85.623V15.425H99.528V11.425ZM83.623 13.425V23.46H87.623V13.425H83.623ZM85.623 25.46H98.718V21.46H85.623V25.46ZM96.718 23.46V26.97H100.718V23.46H96.718ZM98.718 24.97H85.623V28.97H98.718V24.97ZM83.623 26.97V38.445H87.623V26.97H83.623ZM85.623 40.445H99.528V36.445H85.623V40.445ZM97.528 38.445V42H101.528V38.445H97.528Z" fill="white"/>
<line x1="108.789" y1="-3.89443" x2="125.789" y2="30.1056" stroke="white" stroke-width="4"/>
<line x1="125.838" y1="-2.78784" x2="140.838" y2="32.2122" stroke="white" stroke-width="4"/>
<line x1="132.596" y1="-3.9696" x2="147.596" y2="31.0304" stroke="#35CB00" stroke-width="10"/>
<line x1="147.596" y1="-3.9696" x2="162.596" y2="31.0304" stroke="#25396A" stroke-width="10"/>
<line x1="127.412" y1="29.9132" x2="109.297" y2="53.1413" stroke="white" stroke-width="4"/>
<line x1="140.308" y1="32.3881" x2="124.726" y2="52.9898" stroke="white" stroke-width="4"/>
<path d="M147 29L109.6 140.921" stroke="#35CB00" stroke-width="10"/>
<path d="M162 29L124.6 140.921" stroke="#25396A" stroke-width="10"/>
</g>
<defs>
<clipPath id="clip0">
<rect width="241" height="52" fill="white" transform="matrix(1 0 0 -1 0 52)"/>
</clipPath>
</defs>
</svg>
